<svg width="168" height="135" viewBox="0 0 168 135" fill="none" xmlns="http://www.w3.org/2000/svg">
<path d="M26.0037 53.9317L1.27599 76.8265H167.248L145.063 19.5894L121.319 30.9783M26.0037 53.9317L38.6045 75.9395L61.8277 10.0017M26.0037 53.9317L28.0635 76.8265M61.8277 10.0017L76.4966 27.9209M61.8277 10.0017L115.756 76.8265M115.756 76.8265L76.4966 27.9209M115.756 76.8265H71.1685M76.4966 27.9209L95.1498 0.815613M95.1498 0.815613L121.319 30.9783M95.1498 0.815613L123.541 76.8265M159.846 76.8265L121.319 30.9783" stroke="black"/>
<path d="M61.9487 9.86548L29.0392 59.088" stroke="black"/>
<path d="M33.5247 100.9V86.116H37.0767V118.852H33.5247V104.212H19.8927V118.852H16.3407V86.116H19.8927V100.9H33.5247ZM65.81 108.052H48.722V108.244C48.722 113.492 50.946 116.116 55.394 116.116H55.634C58.866 116.116 60.962 114.804 61.922 112.18H65.426C64.818 114.548 63.65 116.34 61.922 117.556C60.226 118.74 58.13 119.332 55.634 119.332H55.394C52.226 119.332 49.73 118.42 47.906 116.596C46.114 114.74 45.218 111.956 45.218 108.244V106.036C45.218 102.324 46.13 99.556 47.954 97.732C49.778 95.876 52.258 94.948 55.394 94.948H55.634C58.802 94.948 61.282 95.876 63.074 97.732C64.898 99.556 65.81 102.324 65.81 106.036V108.052ZM55.394 98.164C51.17 98.164 48.946 100.516 48.722 105.22H62.306C62.082 100.516 59.858 98.164 55.634 98.164H55.394ZM84.1752 119.332C81.0072 119.332 78.5112 118.42 76.6872 116.596C74.8952 114.74 73.9992 111.956 73.9992 108.244V106.036C73.9992 102.324 74.9112 99.556 76.7352 97.732C78.5592 95.876 81.0392 94.948 84.1752 94.948H84.4152C87.2312 94.948 89.5192 95.668 91.2792 97.1081C93.0712 98.5161 94.0792 100.628 94.3032 103.444H90.7512C90.3352 99.924 88.2232 98.164 84.4152 98.164H84.1752C79.7272 98.164 77.5032 100.788 77.5032 106.036V108.244C77.5032 113.492 79.7272 116.116 84.1752 116.116H84.4152C86.2072 116.116 87.6632 115.7 88.7832 114.868C89.9032 114.004 90.5592 112.66 90.7512 110.836H94.3032C94.0792 113.652 93.0712 115.78 91.2792 117.22C89.5192 118.628 87.2312 119.332 84.4152 119.332H84.1752ZM112.956 119.332C109.788 119.332 107.292 118.42 105.468 116.596C103.676 114.74 102.78 111.956 102.78 108.244V106.036C102.78 102.324 103.692 99.556 105.516 97.732C107.34 95.876 109.82 94.948 112.956 94.948H113.196C116.364 94.948 118.844 95.876 120.636 97.732C122.46 99.556 123.372 102.324 123.372 106.036V108.244C123.372 111.956 122.46 114.74 120.636 116.596C118.812 118.42 116.332 119.332 113.196 119.332H112.956ZM113.196 116.116C117.644 116.116 119.868 113.492 119.868 108.244V106.036C119.868 100.788 117.644 98.164 113.196 98.164H112.956C108.508 98.164 106.284 100.788 106.284 106.036V108.244C106.284 113.492 108.508 116.116 112.956 116.116H113.196ZM129.786 118.852V95.428H133.146V98.692H133.578C133.866 97.54 134.41 96.628 135.21 95.956C136.042 95.284 137.066 94.948 138.282 94.948H138.474C139.658 94.948 140.666 95.284 141.498 95.956C142.33 96.628 142.906 97.54 143.226 98.692H143.61C144.026 97.54 144.65 96.628 145.482 95.956C146.346 95.284 147.386 94.948 148.602 94.948H148.794C150.33 94.948 151.562 95.508 152.49 96.628C153.45 97.716 153.93 99.22 153.93 101.14V118.852H150.57V101.908C150.57 99.3801 149.61 98.1161 147.69 98.1161H147.498C146.378 98.1161 145.434 98.4841 144.666 99.2201C143.898 99.9561 143.514 101.204 143.514 102.964V118.852H140.154V101.908C140.154 99.3801 139.21 98.1161 137.322 98.1161H137.13C136.01 98.1161 135.066 98.4841 134.298 99.2201C133.53 99.9561 133.146 101.204 133.146 102.964V118.852H129.786Z" fill="black"/>
</svg>
